<svg width="640" height="480" xmlns="http://www.w3.org/2000/svg" xmlns:svg="http://www.w3.org/2000/svg">
 <!-- Created with SVG-edit - http://svg-edit.googlecode.com/ -->
 <g>
  <title>Layer 1</title>
  <path id="svg_8" d="m-470.21756,33.46797c-0.1969,-0.31438 -0.60727,-0.25765 -0.9127,-0.32906c-0.25361,-0.10513 -0.64202,-0.20591 -0.82246,0.09479c-0.2408,0.28065 -0.45453,0.58328 -0.64473,0.89952c-0.39888,0.43708 -0.88323,0.78754 -1.37011,1.11822c-0.41012,0.2015 -0.85911,0.35864 -1.19111,0.68695c-0.63045,0.40444 -1.39844,0.47818 -2.09551,0.71528c0.12356,0.04296 0.67058,-0.11319 0.30288,0.0578c-0.27356,0.0901 0.10767,0.17383 0.2294,0.11372c-0.09612,0.10278 -0.12256,0.11119 -0.00435,0.10964c-0.21475,0.12001 0.47689,-0.03727 0.09603,0.13069c-0.16581,0.04849 -0.57353,0.49585 -0.19967,0.29432c0.34759,-0.14466 0.71811,-0.21742 1.07969,-0.31684c-0.27044,0.27803 -0.65583,0.4519 -0.8417,0.80444c0.00422,0.09099 0.28771,-0.18489 0.40757,-0.23008c0.68163,-0.41196 1.39582,-0.79376 2.16369,-1.01619c0.10486,0.02526 0.12537,0.30608 0.32975,0.16251c0.01794,0.17893 0.46687,-0.28068 0.34963,0.07779c0.19443,-0.30693 -0.00035,0.33322 0.17962,0.43013c0.09184,0.12132 0.46901,0.28877 0.16156,0.33035c-0.13589,0.20333 0.19051,-0.08156 0.26178,0.10892c0.26635,0.09674 0.07234,0.19593 -0.12047,0.13735c-0.14776,-0.01973 -0.17825,0.17446 -0.02889,0.05396c0.17835,0.12228 0.4616,0.07836 0.68903,0.13093c0.22728,0.01885 0.50277,-0.23272 0.58891,-0.17174c-0.20949,-0.15033 -0.51274,0.03323 -0.74266,-0.08281c-0.04849,-0.156 0.53895,0.05583 0.54014,-0.20786c0.27517,-0.02561 -0.23142,-0.06115 -0.32972,0.00106c-0.33857,0.0181 -0.51228,-0.29665 -0.75063,-0.47536c0.00722,-0.37092 0.27928,-0.68958 0.56402,-0.89905c0.3715,-0.2237 0.75264,-0.51183 0.85786,-0.9583c0.10907,-0.39762 0.16981,-0.80735 0.2194,-1.21509c0.06708,-0.26309 0.2599,-0.50604 0.55567,-0.48641c0.15951,-0.02223 0.31959,-0.04069 0.4781,-0.06956l0,0z" stroke-linecap="null" stroke-linejoin="null" stroke-dasharray="null" stroke-width="0" stroke="#000000" fill="#000000"/>
  <path stroke="#ffffff" id="svg_18" d="m2.5,4.833l0,469.00004l634.10282,0l0,-469.00004l-634.10282,0zm534.29034,428.74424l-434.47786,0l0,-388.48844l434.47786,0l0,388.48844zm-328.79405,-236.24297c33.49002,0 60.6625,-24.29628 60.6625,-54.24139c0,-29.96611 -27.17248,-54.24139 -60.6625,-54.24139c-33.51351,0 -60.6625,24.29628 -60.6625,54.24139c0,29.94511 27.14899,54.24139 60.6625,54.24139zm305.33225,47.24859l-115.47717,-103.25393l-162.44775,145.25268l-45.0213,-40.2558l-64.63152,57.79028l0,108.46177l387.57773,0l0,-167.995z" stroke-linecap="null" stroke-linejoin="null" stroke-dasharray="null" stroke-width="0" fill="#7f0000"/>
  <text stroke="#ffffff" transform="matrix(3.296571912356661,0,0,2.9116503100268694,-487.47979365917234,-520.8680394026482) " xml:space="preserve" text-anchor="middle" font-family="serif" font-size="24" id="svg_16" y="313.52746" x="245.51643" stroke-linecap="null" stroke-linejoin="null" stroke-dasharray="null" stroke-width="0" fill="#ffffff">FilmologIA</text>
 </g>
</svg>